<?xml version="1.0" standalone="no"?>
<!DOCTYPE svg PUBLIC "-//W3C//DTD SVG 20010904//EN"
 "http://www.w3.org/TR/2001/REC-SVG-20010904/DTD/svg10.dtd">
<svg version="1.0" xmlns="http://www.w3.org/2000/svg"
 width="1024.000000pt" height="1024.000000pt" viewBox="0 0 1024.000000 1024.000000"
 preserveAspectRatio="xMidYMid meet">
<metadata>
Created by potrace 1.14, written by Peter Selinger 2001-2017
</metadata>
<g transform="translate(0.000000,1024.000000) scale(0.100000,-0.100000)"
fill="#000000" stroke="none">
<path d="M2857 8104 c-1 -1 -42 -5 -92 -8 -49 -3 -99 -8 -110 -10 -11 -2 -42
-7 -70 -10 -240 -32 -519 -122 -769 -248 -341 -171 -598 -384 -871 -719 -26
-32 -144 -212 -180 -274 -110 -191 -236 -510 -271 -688 -21 -108 -44 -243 -49
-292 -13 -115 -14 -131 -14 -315 0 -102 1 -198 0 -215 0 -16 0 -106 0 -200 -1
-93 1 -186 3 -205 3 -19 7 -62 11 -94 11 -117 42 -273 75 -390 33 -111 81
-250 91 -261 5 -5 9 -15 9 -23 0 -37 165 -348 248 -467 38 -53 122 -167 132
-175 3 -3 30 -34 60 -70 117 -141 327 -327 496 -441 282 -190 602 -323 934
-389 257 -51 150 -49 2665 -46 1293 1 2361 5 2375 8 14 4 47 9 73 12 164 19
459 99 629 172 121 51 143 62 253 123 629 343 1095 956 1259 1651 25 110 31
141 46 255 18 135 20 171 19 343 0 94 -1 184 0 200 0 15 0 106 0 202 0 96 -1
191 -3 210 -10 106 -19 187 -22 205 -3 11 -7 38 -10 60 -10 70 -51 236 -84
340 -85 265 -207 506 -367 723 -132 180 -335 389 -478 495 -5 4 -28 21 -50 38
-148 114 -393 250 -592 327 -131 51 -308 103 -433 127 -68 13 -149 27 -185 31
-22 2 -62 7 -90 10 -45 6 -4632 14 -4638 8z"/>
</g>
</svg>
