<svg version="1.0" xmlns="http://www.w3.org/2000/svg" width="1365.333" height="1365.333" viewBox="0 0 1024 1024"><path d="M285.7 213.6c-.1.1-4.2.5-9.2.8-4.9.3-9.9.8-11 1-1.1.2-4.2.7-7 1-24 3.2-51.9 12.2-76.9 24.8-34.1 17.1-59.8 38.4-87.1 71.9-2.6 3.2-14.4 21.2-18 27.4-11 19.1-23.6 51-27.1 68.8-2.1 10.8-4.4 24.3-4.9 29.2-1.3 11.5-1.4 13.1-1.4 31.5 0 10.2.1 19.8 0 21.5v20c-.1 9.3.1 18.6.3 20.5.3 1.9.7 6.2 1.1 9.4 1.1 11.7 4.2 27.3 7.5 39 3.3 11.1 8.1 25 9.1 26.1.5.5.9 1.5.9 2.3 0 3.7 16.5 34.8 24.8 46.7 3.8 5.3 12.2 16.7 13.2 17.5.3.3 3 3.4 6 7 11.7 14.1 32.7 32.7 49.6 44.1 28.2 19 60.2 32.3 93.4 38.9 25.7 5.1 15 4.9 266.5 4.6 129.3-.1 236.1-.5 237.5-.8 1.4-.4 4.7-.9 7.3-1.2 16.4-1.9 45.9-9.9 62.9-17.2 12.1-5.1 14.3-6.2 25.3-12.3C911.4 701.8 958 640.5 974.4 571c2.5-11 3.1-14.1 4.6-25.5 1.8-13.5 2-17.1 1.9-34.3 0-9.4-.1-18.4 0-20V471c0-9.6-.1-19.1-.3-21-1-10.6-1.9-18.7-2.2-20.5-.3-1.1-.7-3.8-1-6-1-7-5.1-23.6-8.4-34-8.5-26.5-20.7-50.6-36.7-72.3-13.2-18-33.5-38.9-47.8-49.5-.5-.4-2.8-2.1-5-3.8-14.8-11.4-39.3-25-59.2-32.7-13.1-5.1-30.8-10.3-43.3-12.7-6.8-1.3-14.9-2.7-18.5-3.1-2.2-.2-6.2-.7-9-1-4.5-.6-463.2-1.4-463.8-.8z"/></svg>